<!--?xml version="1.0" encoding="utf-8"?-->
<!-- Generator: Adobe Illustrator 18.1.1, SVG Export Plug-In . SVG Version: 6.00 Build 0)  -->

<svg version="1.1" id="_x31_0" xmlns="http://www.w3.org/2000/svg" xmlns:xlink="http://www.w3.org/1999/xlink" x="0px" y="0px" viewBox="0 0 512 512" style="width: 256px; height: 256px; opacity: 1;" xml:space="preserve">
<style type="text/css">
	.st0{fill:#374149;}
</style>
<g>
	<path class="st0" d="M472.03,187.801c-0.114-0.274-0.207-0.55-0.325-0.824c-0.023-0.047-0.039-0.098-0.062-0.149l-73.371,31.035
		l-0.226,0.098l-0.145,0.062c8.016,18.958,12.082,39.118,12.082,59.922c0,20.808-4.066,40.969-12.082,59.926
		c-7.754,18.332-18.863,34.805-33.015,48.953c-14.16,14.16-30.629,25.266-48.961,33.02c-18.958,8.019-39.118,12.086-59.922,12.086
		c-20.808,0-40.969-4.066-59.926-12.086c-18.332-7.754-34.801-18.86-48.957-33.016c-14.156-14.152-25.266-30.625-33.016-48.957
		c-8.019-18.957-12.086-39.118-12.086-59.926c0-20.805,4.066-40.965,12.086-59.922c7.75-18.332,18.86-34.805,33.016-48.957
		c14.152-14.156,30.625-25.262,48.957-33.019c18.961-8.016,39.122-12.082,59.926-12.082c10.398,0,20.618,1.094,30.626,3.118
		c0.812,0.175,1.625,0.308,2.437,0.5l-13.746,32.5l-6.965,16.258l0.094-0.012l-0.074,0.172l126.73-15.738l63.297-7.778l-0.054-0.074
		l0.18-0.024L381.267,50.621L343.174,0.062l-0.039,0.082L343.026,0l-22.414,52.996c-20.898-6-42.519-9.102-64.61-9.102
		c-31.578,0-62.238,6.191-91.117,18.406c-27.879,11.793-52.902,28.664-74.387,50.149c-21.48,21.476-38.351,46.507-50.14,74.378
		c-12.215,28.887-18.41,59.539-18.41,91.118c0,31.582,6.195,62.238,18.41,91.117c11.789,27.879,28.66,52.902,50.144,74.387
		c21.485,21.48,46.508,38.351,74.383,50.14C193.764,505.809,224.42,512,256.002,512c31.578,0,62.234-6.191,91.118-18.41
		c27.871-11.789,52.898-28.66,74.382-50.14c21.481-21.485,38.352-46.508,50.141-74.387c12.219-28.879,18.41-59.535,18.41-91.117
		C490.053,246.718,483.974,216.402,472.03,187.801z" style="fill: rgb(0, 0, 0);"></path>
</g>
</svg>
